<?xml version="1.0" standalone="no"?>
<!DOCTYPE svg PUBLIC "-//W3C//DTD SVG 20010904//EN"
 "http://www.w3.org/TR/2001/REC-SVG-20010904/DTD/svg10.dtd">
<svg version="1.0" xmlns="http://www.w3.org/2000/svg"
 width="746.000000pt" height="581.000000pt" viewBox="0 0 746.000000 581.000000"
 preserveAspectRatio="xMidYMid meet">

<g transform="translate(0.000000,581.000000) scale(0.100000,-0.100000)"
fill="#ffffff" stroke="none">
<path d="M3585 5059 c-256 -25 -569 -118 -819 -246 -370 -189 -714 -522 -906
-878 -65 -119 -126 -241 -144 -285 -9 -25 -33 -79 -51 -121 -19 -42 -69 -162
-110 -265 -70 -173 -91 -223 -115 -279 -5 -11 -23 -56 -40 -100 -18 -44 -49
-120 -70 -170 -21 -49 -98 -243 -172 -430 -75 -187 -190 -477 -256 -645 -129
-324 -192 -490 -192 -503 0 -5 43 30 95 76 162 145 438 319 730 462 202 98
261 123 470 197 321 113 530 173 755 218 l135 26 33 80 c18 43 45 104 59 134
14 30 50 111 79 180 30 69 59 133 64 142 17 30 12 46 -39 116 -26 37 -65 99
-86 137 -21 39 -41 75 -45 80 -13 17 -81 205 -102 279 -44 160 -52 224 -52
441 1 178 4 226 23 315 62 292 187 526 388 727 51 50 120 111 154 134 93 63
236 134 311 154 69 18 82 36 25 34 -18 -1 -72 -6 -122 -10z"/>
<path d="M3867 4945 c-416 -79 -748 -384 -887 -815 -37 -116 -45 -191 -45
-410 0 -282 15 -371 100 -583 45 -116 129 -271 159 -296 13 -11 20 -1 50 65
20 42 36 78 36 79 0 4 74 162 133 285 50 105 109 191 174 251 68 64 106 81
188 87 111 6 181 -33 249 -142 38 -61 105 -197 157 -321 20 -50 52 -122 69
-160 18 -39 59 -133 92 -210 33 -77 71 -165 85 -195 14 -30 53 -118 88 -195
34 -77 76 -169 93 -205 38 -84 163 -358 192 -425 5 -11 25 -55 45 -98 19 -43
35 -80 35 -83 0 -2 18 -44 41 -92 22 -48 49 -108 59 -133 21 -53 45 -107 101
-227 22 -46 39 -85 39 -87 0 -4 31 -71 137 -299 122 -261 176 -346 265 -416
102 -81 219 -120 359 -120 211 0 393 102 512 286 70 109 90 178 95 324 5 149
-3 190 -68 347 -44 110 -64 156 -126 291 -13 29 -24 54 -24 57 0 2 -13 32 -29
67 -16 35 -46 103 -66 153 -37 88 -53 125 -121 273 -19 41 -34 75 -34 78 0 2
-16 38 -35 80 -19 41 -35 78 -35 80 0 3 -13 31 -29 64 -16 32 -32 69 -36 82
-5 12 -46 109 -92 213 -47 105 -90 204 -98 220 -7 17 -23 53 -35 80 -12 28
-29 66 -37 85 -38 86 -53 120 -87 193 -20 44 -36 81 -36 84 0 3 -34 82 -76
177 -42 94 -96 218 -121 276 -24 58 -53 123 -63 145 -10 22 -28 63 -40 90 -12
28 -35 77 -50 110 -16 33 -50 107 -77 165 -27 58 -73 142 -101 188 -57 92
-176 237 -225 275 -17 13 -48 38 -67 55 -88 77 -244 155 -388 194 -102 27
-315 33 -425 13z"/>
<path d="M3985 2113 c-486 -15 -1130 -123 -1630 -274 -433 -130 -909 -336
-1183 -511 -195 -125 -242 -165 -318 -280 -67 -102 -96 -185 -102 -298 -11
-225 92 -431 278 -555 96 -64 164 -86 290 -92 192 -10 308 38 545 225 32 25
147 99 265 169 530 317 1148 515 1795 573 142 12 488 5 632 -14 112 -15 258
-41 358 -65 22 -6 41 -9 42 -7 2 1 -27 67 -63 147 -36 79 -76 169 -88 199 -23
55 -59 139 -121 280 -18 41 -72 165 -120 275 -48 110 -92 205 -99 212 -11 12
-303 22 -481 16z"/>
</g>
</svg>
